General
Unique ID                                : 264301100495844396657437336042210797637 (0xC6D68A56357FE501B0B403EB8E972845)
Complete name                            : Ayumi Hamasaki - Winter diary [WEB-DL 1080p AAC x264-SEKAI].mkv
Format                                   : Matroska
Format version                           : Version 4
File size                                : 426 MiB
Duration                                 : 5 min 52 s
Overall bit rate                         : 10.1 Mb/s
Frame rate                               : 29.970 FPS
Title                                    : Ayumi Hamasaki - Winter diary [WEB-DL 1080p AAC x264-SEKAI]
Encoded date                             : 2025-08-10 18:54:05 UTC
Writing application                      : mkvmerge 94.0 ('Initiate') 64-bit
Writing library                          : libebml v1.4.5 + libmatroska v1.7.1
Website                                  : https://sekai-archivist.blogspot.com/

Video
ID                                       : 1
Format                                   : AVC
Format/Info                              : Advanced Video Codec
Format profile                           : High@L4
Format settings                          : CABAC / 4 Ref Frames
Format settings, CABAC                   : Yes
Format settings, Reference frames        : 4 frames
Format settings, Slice count             : 8 slices per frame
Codec ID                                 : V_MPEG4/ISO/AVC
Duration                                 : 5 min 52 s
Bit rate                                 : 9 877 kb/s
Width                                    : 1 916 pixels
Height                                   : 1 076 pixels
Display aspect ratio                     : 16:9
Frame rate mode                          : Constant
Frame rate                               : 29.970 (30000/1001) FPS
Color space                              : YUV
Chroma subsampling                       : 4:2:0 (Type 2)
Bit depth                                : 8 bits
Scan type                                : Progressive
Bits/(Pixel*Frame)                       : 0.160
Stream size                              : 415 MiB (97%)
Language                                 : Japanese
Default                                  : Yes
Forced                                   : No
Color range                              : Limited
Color primaries                          : BT.709
Transfer characteristics                 : BT.709
Matrix coefficients                      : BT.709

Audio
ID                                       : 2
Format                                   : AAC LC
Format/Info                              : Advanced Audio Codec Low Complexity
Codec ID                                 : A_AAC-2
Duration                                 : 5 min 52 s
Bit rate                                 : 257 kb/s
Channel(s)                               : 2 channels
Channel layout                           : L R
Sampling rate                            : 48.0 kHz
Frame rate                               : 46.875 FPS (1024 SPF)
Compression mode                         : Lossy
Stream size                              : 10.8 MiB (3%)
Language                                 : Japanese
Default                                  : Yes
Forced                                   : No


